{"title":"Udta Punjab (2016) HQ 1080p Blu-ray x264 DTS-HD 7.1 ESub -DDR","uid":15759492,"size":15591647853,"categoryP":"video","categoryS":"hd___movies","magnet":"?xt=urn:btih:ded61f92b636f5e2409d74857295f07bc8904684&amp;dn=Udta+Punjab+%282016%29+HQ+1080p+Blu-ray+x264+DTS-HD+7.1+ESub+-DDR&amp;tr=udp%3A%2F%2Ftracker.leechers-paradise.org%3A6969&amp;tr=udp%3A%2F%2Fzer0day.ch%3A1337&amp;tr=udp%3A%2F%2Fopen.demonii.com%3A1337&amp;tr=udp%3A%2F%2Ftracker.coppersurfer.tk%3A6969&amp;tr=udp%3A%2F%2Fexodus.desync.com%3A6969","seeders":4,"leechers":8,"uploader":"SaM","files":3,"time":1473094930,"description":"** UDTA PUNJAB **\r\n\r\n** 2016**\r\n\r\n** HQ 1080p / Blu-ray Rip / x264\r\n\r\nHindi DTS-HD Master Audio 7.1 **\r\n\r\n** English Subtitle(s) **\r\n\r\n\r\n\r\n[ SCREENS ]\r\n \nhttp://extraimago.com/image/wQJ4  \nhttp://extraimago.com/image/wQJe  \nhttp://extraimago.com/image/wQJZ  \nhttp://extraimago.com/image/wQJK  \nhttp://extraimago.com/image/wQJJ  \nhttp://extraimago.com/image/wQJ0  \nhttp://extraimago.com/image/wQJF  \nhttp://extraimago.com/image/wQJD  \nhttp://extraimago.com/image/wQJ5  \nhttp://extraimago.com/image/wQJg  \nhttp://extraimago.com/image/wQJX  \nhttp://extraimago.com/image/wQJP  \nhttp://extraimago.com/image/wQJG  \nhttp://extraimago.com/image/wQJr  \nhttp://extraimago.com/image/wQJp  \nhttp://extraimago.com/image/wQJY  \nhttp://extraimago.com/image/wQJC  \nhttp://extraimago.com/image/wQJB\r\n\r\n[ Info ]\r\n\r\nSource = BD50 @ DDR\r\n\r\nFormat : Matroska\r\nFile size : 14.5 GiB\r\nDuration : 2 h 28 min\r\nOverall bit rate : 14.0 Mb/s\r\n\r\n\r\nVideo\r\nFormat : AVC\r\nFormat/Info : Advanced Video Codec\r\nFormat profile :   \r\nFormat settings, CABAC : Yes\r\nFormat settings, ReFrames : 5 frames\r\nCodec ID : V_MPEG4/ISO/AVC\r\nDuration : 2 h 26 min\r\nBit rate : 10.1 Mb/s\r\nWidth : 1 920 pixels\r\nHeight : 800 pixels\r\nDisplay aspect ratio : 2.40:1\r\nFrame rate mode : Constant\r\nFrame rate : 24.000 FPS\r\ncolor space : YUV\r\nChroma subsampling : 4:2:0\r\nBit depth : 8 bits\r\nScan type : Progressive\r\nBits/(Pixel*Frame) : 0.273\r\nStream size : 10.3 GiB (71%)\r\nLanguage : English\r\nDefault : Yes\r\nForced : No\r\ncolor range : Limited\r\ncolor primaries : BT.709\r\nTransfer characteristics : BT.709\r\nMatrix coefficients : BT.709\r\n\r\nAudio #1\r\nFormat : DTS\r\nFormat/Info : Digital Theater Systems\r\nFormat profile : MA / Core\r\nMode : 16\r\nFormat settings, Endianness : Big\r\nCodec ID : A_DTS\r\nDuration : 2 h 28 min\r\nBit rate mode : Variable / Constant\r\nBit rate : 4 031 kb/s / 1 509 kb/s\r\nChannel(s) : 8 channels / 6 channels\r\nChannel positions : Front: L C R, Side: L R, Back: L R, LFE / Front: L C R, Side: L R, LFE\r\nSampling rate : 48.0 kHz\r\nFrame rate : 93.750 FPS (512 spf)\r\nBit depth : 24 bits\r\nCompression mode : Lossless / Lossy\r\nStream size : 4.18 GiB (29%)\r\nLanguage : Hindi\r\nDefault : Yes\r\nForced : No\r\n\r\n\r\nChapters = YES\r\n\r\n[ A DDR Exclusive Release !!! ]","torrent":{"xt":"urn:btih:ded61f92b636f5e2409d74857295f07bc8904684","amp;dn":"Udta+Punjab+%282016%29+HQ+1080p+Blu-ray+x264+DTS-HD+7.1+ESub+-DDR","amp;tr":["udp%3A%2F%2Ftracker.leechers-paradise.org%3A6969","udp%3A%2F%2Fzer0day.ch%3A1337","udp%3A%2F%2Fopen.demonii.com%3A1337","udp%3A%2F%2Ftracker.coppersurfer.tk%3A6969","udp%3A%2F%2Fexodus.desync.com%3A6969"],"infoHash":"ded61f92b636f5e2409d74857295f07bc8904684","infoHashBuffer":{"type":"Buffer","data":[222,214,31,146,182,54,245,226,64,157,116,133,114,149,240,123,200,144,70,132]},"announce":[],"urlList":[]}}